<?xml version="1.0" encoding="UTF-8"?>
<svg version="1.1" xmlns="http://www.w3.org/2000/svg" width="64" height="64">
<path d="M0 0 C3.5507604 1.7753802 5.45700004 3.01272735 7.375 6.5 C8 9 8 9 8 13 C8.94875 13.103125 9.8975 13.20625 10.875 13.3125 C14 14 14 14 16 17 C16.41064453 19.21386719 16.41064453 19.21386719 16.6328125 21.796875 C16.71700439 22.74916992 16.80119629 23.70146484 16.88793945 24.68261719 C17.00528442 26.20097168 17.00528442 26.20097168 17.125 27.75 C17.2077417 28.7802832 17.2904834 29.81056641 17.37573242 30.87207031 C19.10095941 53.58903662 19.10095941 53.58903662 16.71362305 56.64859009 C13.76025867 58.97769385 10.10802382 58.42561124 6.5 58.3984375 C5.66791016 58.40130768 4.83582031 58.40417786 3.97851562 58.40713501 C2.22004516 58.40917562 0.46155199 58.40364593 -1.296875 58.39111328 C-3.99009913 58.37505902 -6.6818226 58.39096145 -9.375 58.41015625 C-11.08333665 58.40817382 -12.79167236 58.40433014 -14.5 58.3984375 C-15.30630859 58.40451019 -16.11261719 58.41058289 -16.94335938 58.4168396 C-22.56114909 58.34608981 -22.56114909 58.34608981 -24.71362305 56.64859009 C-27.87636878 52.59529043 -26.25065751 44.9848659 -26 40 C-25.95214355 39.04625488 -25.90428711 38.09250977 -25.85498047 37.10986328 C-25.68208722 34.00812879 -25.4726799 30.91103599 -25.25 27.8125 C-25.18852783 26.80864258 -25.12705566 25.80478516 -25.0637207 24.77050781 C-24.48536908 17.71042269 -24.48536908 17.71042269 -22.171875 14.32421875 C-20 13 -20 13 -16 13 C-15.9071875 11.4221875 -15.9071875 11.4221875 -15.8125 9.8125 C-14.85862552 5.33662744 -13.46953013 3.87717133 -10 1 C-6.78268449 -0.60865775 -3.4892388 -0.46696133 0 0 Z M-9.375 7.3125 C-11.25870967 9.90443497 -11.25870967 9.90443497 -11 13 C-6.38 13 -1.76 13 3 13 C2.3949065 8.35672396 2.3949065 8.35672396 0.8125 6.1875 C-3.10256939 3.62245454 -6.12098285 4.14411488 -9.375 7.3125 Z M-13 25 C-13.33 25.66 -13.66 26.32 -14 27 C-9.85810082 31.54210586 -9.85810082 31.54210586 -4.25 33.3125 C-0.16859042 32.92005677 1.84684973 31.56651766 5 29 C5.33 28.01 5.66 27.02 6 26 C5.01 25.67 4.02 25.34 3 25 C2.46375 25.66 1.9275 26.32 1.375 27 C-1 29 -1 29 -4 29.5 C-7.6199928 28.89666787 -8.6332538 27.7048528 -11 25 C-11.66 25 -12.32 25 -13 25 Z " fill="#000000" transform="translate(36,3)"/>
</svg>
